<mxfile host="app.diagrams.net" modified="2023-09-01T06:36:18.667Z" agent="Mozilla/5.0 (Windows NT 10.0; Win64; x64) AppleWebKit/537.36 (KHTML, like Gecko) Chrome/116.0.0.0 Safari/537.36" etag="7ePBFifUQFeFcdgrIGQf" version="21.7.1" type="github">
  <diagram name="Page-1" id="t1JeEBVw8Y3AePatdpB4">
    <mxGraphModel dx="2163" dy="708" grid="1" gridSize="10" guides="1" tooltips="1" connect="1" arrows="1" fold="1" page="1" pageScale="1" pageWidth="850" pageHeight="1100" math="0" shadow="0">
      <root>
        <mxCell id="0" />
        <mxCell id="1" parent="0" />
        <mxCell id="Oo84whr6A2PB2OYvweKB-5" value="" style="edgeStyle=orthogonalEdgeStyle;rounded=0;orthogonalLoop=1;jettySize=auto;html=1;" parent="1" source="Oo84whr6A2PB2OYvweKB-1" target="Oo84whr6A2PB2OYvweKB-4" edge="1">
          <mxGeometry relative="1" as="geometry" />
        </mxCell>
        <mxCell id="Oo84whr6A2PB2OYvweKB-1" value="Contact Us Step 1" style="rounded=0;whiteSpace=wrap;html=1;" parent="1" vertex="1">
          <mxGeometry x="80" y="70" width="120" height="60" as="geometry" />
        </mxCell>
        <mxCell id="Oo84whr6A2PB2OYvweKB-7" value="" style="edgeStyle=orthogonalEdgeStyle;rounded=0;orthogonalLoop=1;jettySize=auto;html=1;" parent="1" source="Oo84whr6A2PB2OYvweKB-4" target="Oo84whr6A2PB2OYvweKB-6" edge="1">
          <mxGeometry relative="1" as="geometry" />
        </mxCell>
        <mxCell id="Oo84whr6A2PB2OYvweKB-10" value="" style="edgeStyle=orthogonalEdgeStyle;rounded=0;orthogonalLoop=1;jettySize=auto;html=1;" parent="1" source="Oo84whr6A2PB2OYvweKB-4" target="Oo84whr6A2PB2OYvweKB-9" edge="1">
          <mxGeometry relative="1" as="geometry" />
        </mxCell>
        <mxCell id="Oo84whr6A2PB2OYvweKB-4" value="If choses a customer/logged in" style="rhombus;whiteSpace=wrap;html=1;rounded=0;" parent="1" vertex="1">
          <mxGeometry x="300" y="60" width="80" height="80" as="geometry" />
        </mxCell>
        <mxCell id="Oo84whr6A2PB2OYvweKB-13" value="" style="edgeStyle=orthogonalEdgeStyle;rounded=0;orthogonalLoop=1;jettySize=auto;html=1;" parent="1" source="Oo84whr6A2PB2OYvweKB-6" edge="1">
          <mxGeometry relative="1" as="geometry">
            <mxPoint x="400" y="260" as="targetPoint" />
            <Array as="points">
              <mxPoint x="500" y="260" />
            </Array>
          </mxGeometry>
        </mxCell>
        <mxCell id="Oo84whr6A2PB2OYvweKB-6" value="Contact Us Info" style="whiteSpace=wrap;html=1;rounded=0;" parent="1" vertex="1">
          <mxGeometry x="440" y="70" width="120" height="60" as="geometry" />
        </mxCell>
        <mxCell id="Oo84whr6A2PB2OYvweKB-8" value="Yes" style="text;html=1;align=center;verticalAlign=middle;resizable=0;points=[];autosize=1;strokeColor=none;fillColor=none;" parent="1" vertex="1">
          <mxGeometry x="380" y="68" width="40" height="30" as="geometry" />
        </mxCell>
        <mxCell id="Oo84whr6A2PB2OYvweKB-18" value="" style="edgeStyle=orthogonalEdgeStyle;rounded=0;orthogonalLoop=1;jettySize=auto;html=1;" parent="1" source="Oo84whr6A2PB2OYvweKB-9" target="Oo84whr6A2PB2OYvweKB-17" edge="1">
          <mxGeometry relative="1" as="geometry" />
        </mxCell>
        <mxCell id="Oo84whr6A2PB2OYvweKB-9" value="Contact Us step 2" style="whiteSpace=wrap;html=1;rounded=0;" parent="1" vertex="1">
          <mxGeometry x="280" y="230" width="120" height="60" as="geometry" />
        </mxCell>
        <mxCell id="Oo84whr6A2PB2OYvweKB-11" value="No" style="text;html=1;align=center;verticalAlign=middle;resizable=0;points=[];autosize=1;strokeColor=none;fillColor=none;" parent="1" vertex="1">
          <mxGeometry x="350" y="168" width="40" height="30" as="geometry" />
        </mxCell>
        <mxCell id="Oo84whr6A2PB2OYvweKB-14" value="Clicking on Email us option" style="text;html=1;align=center;verticalAlign=middle;resizable=0;points=[];autosize=1;strokeColor=none;fillColor=none;" parent="1" vertex="1">
          <mxGeometry x="500" y="188" width="170" height="30" as="geometry" />
        </mxCell>
        <mxCell id="Oo84whr6A2PB2OYvweKB-20" value="" style="edgeStyle=orthogonalEdgeStyle;rounded=0;orthogonalLoop=1;jettySize=auto;html=1;" parent="1" source="Oo84whr6A2PB2OYvweKB-17" target="Oo84whr6A2PB2OYvweKB-19" edge="1">
          <mxGeometry relative="1" as="geometry" />
        </mxCell>
        <mxCell id="Oo84whr6A2PB2OYvweKB-22" value="" style="edgeStyle=orthogonalEdgeStyle;rounded=0;orthogonalLoop=1;jettySize=auto;html=1;" parent="1" source="Oo84whr6A2PB2OYvweKB-17" target="Oo84whr6A2PB2OYvweKB-21" edge="1">
          <mxGeometry relative="1" as="geometry" />
        </mxCell>
        <mxCell id="Oo84whr6A2PB2OYvweKB-17" value="A customer and choses Complaint" style="rhombus;whiteSpace=wrap;html=1;rounded=0;" parent="1" vertex="1">
          <mxGeometry x="300" y="360" width="80" height="80" as="geometry" />
        </mxCell>
        <mxCell id="Oo84whr6A2PB2OYvweKB-26" value="" style="edgeStyle=orthogonalEdgeStyle;rounded=0;orthogonalLoop=1;jettySize=auto;html=1;" parent="1" source="Oo84whr6A2PB2OYvweKB-19" target="Oo84whr6A2PB2OYvweKB-21" edge="1">
          <mxGeometry relative="1" as="geometry">
            <mxPoint x="390" y="560" as="targetPoint" />
            <Array as="points">
              <mxPoint x="500" y="560" />
            </Array>
          </mxGeometry>
        </mxCell>
        <mxCell id="Oo84whr6A2PB2OYvweKB-19" value="Quick FAQ page" style="whiteSpace=wrap;html=1;rounded=0;" parent="1" vertex="1">
          <mxGeometry x="440" y="370" width="120" height="60" as="geometry" />
        </mxCell>
        <mxCell id="Oo84whr6A2PB2OYvweKB-29" value="" style="edgeStyle=orthogonalEdgeStyle;rounded=0;orthogonalLoop=1;jettySize=auto;html=1;" parent="1" source="Oo84whr6A2PB2OYvweKB-21" target="Oo84whr6A2PB2OYvweKB-28" edge="1">
          <mxGeometry relative="1" as="geometry" />
        </mxCell>
        <mxCell id="10oNAhlrWAHIXG4UV7A2-7" value="" style="edgeStyle=orthogonalEdgeStyle;rounded=0;orthogonalLoop=1;jettySize=auto;html=1;" edge="1" parent="1" source="Oo84whr6A2PB2OYvweKB-21" target="10oNAhlrWAHIXG4UV7A2-6">
          <mxGeometry relative="1" as="geometry" />
        </mxCell>
        <mxCell id="10oNAhlrWAHIXG4UV7A2-9" value="" style="edgeStyle=orthogonalEdgeStyle;rounded=0;orthogonalLoop=1;jettySize=auto;html=1;" edge="1" parent="1" source="Oo84whr6A2PB2OYvweKB-21" target="10oNAhlrWAHIXG4UV7A2-8">
          <mxGeometry relative="1" as="geometry" />
        </mxCell>
        <mxCell id="Oo84whr6A2PB2OYvweKB-21" value="Proceed to fill details" style="whiteSpace=wrap;html=1;rounded=0;" parent="1" vertex="1">
          <mxGeometry x="280" y="530" width="120" height="60" as="geometry" />
        </mxCell>
        <mxCell id="Oo84whr6A2PB2OYvweKB-27" value="Clicking continue from any Question&lt;br&gt;(Store the question where the continue button clicked)" style="text;html=1;align=center;verticalAlign=middle;resizable=0;points=[];autosize=1;strokeColor=none;fillColor=none;" parent="1" vertex="1">
          <mxGeometry x="500" y="470" width="310" height="40" as="geometry" />
        </mxCell>
        <mxCell id="Oo84whr6A2PB2OYvweKB-31" value="" style="edgeStyle=orthogonalEdgeStyle;rounded=0;orthogonalLoop=1;jettySize=auto;html=1;" parent="1" source="Oo84whr6A2PB2OYvweKB-28" target="Oo84whr6A2PB2OYvweKB-30" edge="1">
          <mxGeometry relative="1" as="geometry" />
        </mxCell>
        <mxCell id="Oo84whr6A2PB2OYvweKB-28" value="Customer Without login" style="whiteSpace=wrap;html=1;rounded=0;" parent="1" vertex="1">
          <mxGeometry x="-220" y="660" width="120" height="60" as="geometry" />
        </mxCell>
        <mxCell id="Oo84whr6A2PB2OYvweKB-33" value="" style="edgeStyle=orthogonalEdgeStyle;rounded=0;orthogonalLoop=1;jettySize=auto;html=1;" parent="1" source="Oo84whr6A2PB2OYvweKB-30" target="Oo84whr6A2PB2OYvweKB-32" edge="1">
          <mxGeometry relative="1" as="geometry" />
        </mxCell>
        <mxCell id="10oNAhlrWAHIXG4UV7A2-2" value="" style="edgeStyle=orthogonalEdgeStyle;rounded=0;orthogonalLoop=1;jettySize=auto;html=1;" edge="1" parent="1" source="Oo84whr6A2PB2OYvweKB-30" target="10oNAhlrWAHIXG4UV7A2-1">
          <mxGeometry relative="1" as="geometry" />
        </mxCell>
        <mxCell id="Oo84whr6A2PB2OYvweKB-30" value="emails matches with record" style="rhombus;whiteSpace=wrap;html=1;rounded=0;" parent="1" vertex="1">
          <mxGeometry x="-50" y="650" width="80" height="80" as="geometry" />
        </mxCell>
        <mxCell id="10oNAhlrWAHIXG4UV7A2-12" value="" style="edgeStyle=orthogonalEdgeStyle;rounded=0;orthogonalLoop=1;jettySize=auto;html=1;" edge="1" parent="1" source="Oo84whr6A2PB2OYvweKB-32" target="10oNAhlrWAHIXG4UV7A2-10">
          <mxGeometry relative="1" as="geometry">
            <Array as="points">
              <mxPoint x="180" y="970" />
            </Array>
          </mxGeometry>
        </mxCell>
        <mxCell id="Oo84whr6A2PB2OYvweKB-32" value="Customer&amp;nbsp; LoggedIn" style="whiteSpace=wrap;html=1;rounded=0;" parent="1" vertex="1">
          <mxGeometry x="90" y="660" width="120" height="60" as="geometry" />
        </mxCell>
        <mxCell id="Oo84whr6A2PB2OYvweKB-34" value="Yes" style="text;html=1;align=center;verticalAlign=middle;resizable=0;points=[];autosize=1;strokeColor=none;fillColor=none;" parent="1" vertex="1">
          <mxGeometry x="30" y="658" width="40" height="30" as="geometry" />
        </mxCell>
        <mxCell id="10oNAhlrWAHIXG4UV7A2-5" value="" style="edgeStyle=orthogonalEdgeStyle;rounded=0;orthogonalLoop=1;jettySize=auto;html=1;entryX=0.5;entryY=1;entryDx=0;entryDy=0;" edge="1" parent="1" source="10oNAhlrWAHIXG4UV7A2-1" target="Oo84whr6A2PB2OYvweKB-32">
          <mxGeometry relative="1" as="geometry">
            <mxPoint x="130" y="850.0000000000002" as="targetPoint" />
          </mxGeometry>
        </mxCell>
        <mxCell id="10oNAhlrWAHIXG4UV7A2-1" value="Email Hint Page&lt;br&gt;(redirect to forgot Email page)" style="rounded=0;whiteSpace=wrap;html=1;" vertex="1" parent="1">
          <mxGeometry x="-70" y="820" width="120" height="60" as="geometry" />
        </mxCell>
        <mxCell id="10oNAhlrWAHIXG4UV7A2-3" value="No" style="text;html=1;align=center;verticalAlign=middle;resizable=0;points=[];autosize=1;strokeColor=none;fillColor=none;" vertex="1" parent="1">
          <mxGeometry x="-20" y="748" width="40" height="30" as="geometry" />
        </mxCell>
        <mxCell id="10oNAhlrWAHIXG4UV7A2-15" value="" style="edgeStyle=orthogonalEdgeStyle;rounded=0;orthogonalLoop=1;jettySize=auto;html=1;" edge="1" parent="1" source="10oNAhlrWAHIXG4UV7A2-6" target="10oNAhlrWAHIXG4UV7A2-14">
          <mxGeometry relative="1" as="geometry" />
        </mxCell>
        <mxCell id="10oNAhlrWAHIXG4UV7A2-6" value="Representing a customer" style="whiteSpace=wrap;html=1;rounded=0;" vertex="1" parent="1">
          <mxGeometry x="695" y="660" width="120" height="60" as="geometry" />
        </mxCell>
        <mxCell id="10oNAhlrWAHIXG4UV7A2-11" value="" style="edgeStyle=orthogonalEdgeStyle;rounded=0;orthogonalLoop=1;jettySize=auto;html=1;" edge="1" parent="1" source="10oNAhlrWAHIXG4UV7A2-34" target="10oNAhlrWAHIXG4UV7A2-10">
          <mxGeometry relative="1" as="geometry">
            <Array as="points">
              <mxPoint x="340" y="760" />
              <mxPoint x="340" y="760" />
            </Array>
          </mxGeometry>
        </mxCell>
        <mxCell id="10oNAhlrWAHIXG4UV7A2-35" value="" style="edgeStyle=orthogonalEdgeStyle;rounded=0;orthogonalLoop=1;jettySize=auto;html=1;" edge="1" parent="1" source="10oNAhlrWAHIXG4UV7A2-8" target="10oNAhlrWAHIXG4UV7A2-34">
          <mxGeometry relative="1" as="geometry" />
        </mxCell>
        <mxCell id="10oNAhlrWAHIXG4UV7A2-8" value="Not a customer" style="whiteSpace=wrap;html=1;rounded=0;" vertex="1" parent="1">
          <mxGeometry x="490" y="660" width="120" height="60" as="geometry" />
        </mxCell>
        <mxCell id="10oNAhlrWAHIXG4UV7A2-10" value="Thank you page" style="whiteSpace=wrap;html=1;rounded=0;" vertex="1" parent="1">
          <mxGeometry x="280" y="940" width="120" height="60" as="geometry" />
        </mxCell>
        <mxCell id="10oNAhlrWAHIXG4UV7A2-13" value="Create ticket and &lt;br&gt;render thank you" style="text;html=1;align=center;verticalAlign=middle;resizable=0;points=[];autosize=1;strokeColor=none;fillColor=none;" vertex="1" parent="1">
          <mxGeometry x="210" y="793" width="110" height="40" as="geometry" />
        </mxCell>
        <mxCell id="10oNAhlrWAHIXG4UV7A2-17" value="" style="edgeStyle=orthogonalEdgeStyle;rounded=0;orthogonalLoop=1;jettySize=auto;html=1;entryX=1;entryY=0.5;entryDx=0;entryDy=0;" edge="1" parent="1" source="10oNAhlrWAHIXG4UV7A2-14" target="10oNAhlrWAHIXG4UV7A2-10">
          <mxGeometry relative="1" as="geometry">
            <mxPoint x="560" y="959.9999999999998" as="targetPoint" />
            <Array as="points">
              <mxPoint x="755" y="970" />
            </Array>
          </mxGeometry>
        </mxCell>
        <mxCell id="10oNAhlrWAHIXG4UV7A2-20" value="" style="edgeStyle=orthogonalEdgeStyle;rounded=0;orthogonalLoop=1;jettySize=auto;html=1;" edge="1" parent="1" source="10oNAhlrWAHIXG4UV7A2-14" target="10oNAhlrWAHIXG4UV7A2-19">
          <mxGeometry relative="1" as="geometry" />
        </mxCell>
        <mxCell id="10oNAhlrWAHIXG4UV7A2-24" value="" style="edgeStyle=orthogonalEdgeStyle;rounded=0;orthogonalLoop=1;jettySize=auto;html=1;" edge="1" parent="1" source="10oNAhlrWAHIXG4UV7A2-14" target="10oNAhlrWAHIXG4UV7A2-23">
          <mxGeometry relative="1" as="geometry">
            <mxPoint x="1185" y="830" as="sourcePoint" />
          </mxGeometry>
        </mxCell>
        <mxCell id="10oNAhlrWAHIXG4UV7A2-29" value="" style="edgeStyle=orthogonalEdgeStyle;rounded=0;orthogonalLoop=1;jettySize=auto;html=1;entryX=0.75;entryY=0;entryDx=0;entryDy=0;" edge="1" parent="1" source="10oNAhlrWAHIXG4UV7A2-14" target="10oNAhlrWAHIXG4UV7A2-10">
          <mxGeometry relative="1" as="geometry">
            <mxPoint x="595" y="830" as="targetPoint" />
          </mxGeometry>
        </mxCell>
        <mxCell id="10oNAhlrWAHIXG4UV7A2-14" value="DD verification/DPA verification" style="rhombus;whiteSpace=wrap;html=1;rounded=0;" vertex="1" parent="1">
          <mxGeometry x="715" y="790" width="80" height="80" as="geometry" />
        </mxCell>
        <mxCell id="10oNAhlrWAHIXG4UV7A2-18" value="DD and DPA verified" style="text;html=1;align=center;verticalAlign=middle;resizable=0;points=[];autosize=1;strokeColor=none;fillColor=none;" vertex="1" parent="1">
          <mxGeometry x="700" y="888" width="130" height="30" as="geometry" />
        </mxCell>
        <mxCell id="10oNAhlrWAHIXG4UV7A2-43" value="" style="edgeStyle=orthogonalEdgeStyle;rounded=0;orthogonalLoop=1;jettySize=auto;html=1;" edge="1" parent="1" source="10oNAhlrWAHIXG4UV7A2-19" target="10oNAhlrWAHIXG4UV7A2-42">
          <mxGeometry relative="1" as="geometry" />
        </mxCell>
        <mxCell id="10oNAhlrWAHIXG4UV7A2-19" value="Send Confirmation mailer" style="whiteSpace=wrap;html=1;rounded=0;" vertex="1" parent="1">
          <mxGeometry x="695" y="1050" width="120" height="60" as="geometry" />
        </mxCell>
        <mxCell id="10oNAhlrWAHIXG4UV7A2-21" value="Render Thank you" style="text;html=1;align=center;verticalAlign=middle;resizable=0;points=[];autosize=1;strokeColor=none;fillColor=none;" vertex="1" parent="1">
          <mxGeometry x="420" y="940" width="120" height="30" as="geometry" />
        </mxCell>
        <mxCell id="10oNAhlrWAHIXG4UV7A2-22" value="Send verification mailer to customer" style="text;html=1;align=center;verticalAlign=middle;resizable=0;points=[];autosize=1;strokeColor=none;fillColor=none;" vertex="1" parent="1">
          <mxGeometry x="670" y="998" width="210" height="30" as="geometry" />
        </mxCell>
        <mxCell id="10oNAhlrWAHIXG4UV7A2-23" value="OTP / Customer verification flow" style="whiteSpace=wrap;html=1;rounded=0;" vertex="1" parent="1">
          <mxGeometry x="940" y="800" width="120" height="60" as="geometry" />
        </mxCell>
        <mxCell id="10oNAhlrWAHIXG4UV7A2-25" value="DD verified and DPA &lt;br&gt;partial verified" style="text;html=1;align=center;verticalAlign=middle;resizable=0;points=[];autosize=1;strokeColor=none;fillColor=none;" vertex="1" parent="1">
          <mxGeometry x="800" y="780" width="130" height="40" as="geometry" />
        </mxCell>
        <mxCell id="10oNAhlrWAHIXG4UV7A2-33" value="Render thank you page&amp;nbsp; without&amp;nbsp; creating the ticket" style="text;html=1;align=center;verticalAlign=middle;resizable=0;points=[];autosize=1;strokeColor=none;fillColor=none;" vertex="1" parent="1">
          <mxGeometry x="390" y="798" width="290" height="30" as="geometry" />
        </mxCell>
        <mxCell id="10oNAhlrWAHIXG4UV7A2-36" value="" style="edgeStyle=orthogonalEdgeStyle;rounded=0;orthogonalLoop=1;jettySize=auto;html=1;" edge="1" parent="1" source="10oNAhlrWAHIXG4UV7A2-34" target="Oo84whr6A2PB2OYvweKB-32">
          <mxGeometry relative="1" as="geometry" />
        </mxCell>
        <mxCell id="10oNAhlrWAHIXG4UV7A2-34" value="If email in record" style="rhombus;whiteSpace=wrap;html=1;rounded=0;" vertex="1" parent="1">
          <mxGeometry x="300" y="650" width="80" height="80" as="geometry" />
        </mxCell>
        <mxCell id="10oNAhlrWAHIXG4UV7A2-37" value="Yes" style="text;html=1;align=center;verticalAlign=middle;resizable=0;points=[];autosize=1;strokeColor=none;fillColor=none;" vertex="1" parent="1">
          <mxGeometry x="245" y="658" width="40" height="30" as="geometry" />
        </mxCell>
        <mxCell id="10oNAhlrWAHIXG4UV7A2-41" value="No" style="text;html=1;align=center;verticalAlign=middle;resizable=0;points=[];autosize=1;strokeColor=none;fillColor=none;" vertex="1" parent="1">
          <mxGeometry x="340" y="740" width="40" height="30" as="geometry" />
        </mxCell>
        <mxCell id="10oNAhlrWAHIXG4UV7A2-42" value="Thank You" style="whiteSpace=wrap;html=1;rounded=0;" vertex="1" parent="1">
          <mxGeometry x="695" y="1230" width="120" height="60" as="geometry" />
        </mxCell>
        <mxCell id="10oNAhlrWAHIXG4UV7A2-44" value="Clicking on the mail Will create ticket &lt;br&gt;and render thank you page" style="text;html=1;align=center;verticalAlign=middle;resizable=0;points=[];autosize=1;strokeColor=none;fillColor=none;" vertex="1" parent="1">
          <mxGeometry x="650" y="1143" width="220" height="40" as="geometry" />
        </mxCell>
      </root>
    </mxGraphModel>
  </diagram>
</mxfile>
